{"title":"Terminator.Genisys.2015.1080p.BluRay.H264.AAC-RARBG","uid":12496450,"size":2591512383,"categoryP":"video","categoryS":"hd___movies","magnet":"?xt=urn:btih:7f6a659a1267fdd7b3b6f5846948fcd329edbdff&amp;dn=Terminator.Genisys.2015.1080p.BluRay.H264.AAC-RARBG&amp;tr=udp%3A%2F%2Ftracker.leechers-paradise.org%3A6969&amp;tr=udp%3A%2F%2Fzer0day.ch%3A1337&amp;tr=udp%3A%2F%2Fopen.demonii.com%3A1337&amp;tr=udp%3A%2F%2Ftracker.coppersurfer.tk%3A6969&amp;tr=udp%3A%2F%2Fexodus.desync.com%3A6969","seeders":0,"leechers":1,"uploader":"vickey1992","files":6,"time":1443274825,"description":"Video\r\nID                                       : 1\r\nFormat                                   : AVC\r\nFormat/Info                              : Advanced Video Codec\r\nFormat profile                           :   \r\nFormat settings, CABAC                   : Yes\r\nFormat settings, ReFrames                : 4 frames\r\nCodec ID                                 : avc1\r\nCodec ID/Info                            : Advanced Video Coding\r\nDuration                                 : 2h 5mn\r\nBit rate                                 : 2 500 Kbps\r\nWidth                                    : 1 920 pixels\r\nHeight                                   : 808 pixels\r\nDisplay aspect ratio                     : 2.40:1\r\nFrame rate mode                          : Constant\r\nFrame rate                               : 23.976 fps\r\nColor space                              : YUV\r\nChroma subsampling                       : 4:2:0\r\nBit depth                                : 8 bits\r\nScan type                                : Progressive\r\nBits/(Pixel*Frame)                       : 0.067\r\nStream size                              : 2.20 GiB (92%)\r\nWriting library                          : x264 core 148 r2597M e86f3a1\r\nEncoding settings                        : cabac=1 / ref=4 / deblock=1:-1:-1 / analyse=0x3:0x113 / me=umh / subme=9 / psy=1 / psy_rd=1.00:0.15 / mixed_ref=1 / me_range=24 / chroma_me=1 / trellis=2 / 8x8dct=1 / cqm=0 / deadzone=21,11 / fast_pskip=1 / chroma_qp_offset=-3 / threads=32 / lookahead_threads=4 / sliced_threads=0 / nr=0 / decimate=1 / interlaced=0 / bluray_compat=0 / constrained_intra=0 / bframes=3 / b_pyramid=2 / b_adapt=1 / b_bias=0 / direct=1 / weightb=1 / open_gop=0 / weightp=2 / keyint=250 / keyint_min=25 / scenecut=40 / intra_refresh=0 / rc_lookahead=50 / rc=2pass / mbtree=1 / bitrate=2500 / ratetol=1.0 / qcomp=0.60 / qpmin=0 / qpmax=69 / qpstep=4 / cplxblur=20.0 / qblur=0.5 / vbv_maxrate=31250 / vbv_bufsize=31250 / nal_hrd=none / filler=0 / ip_ratio=1.40 / aq=3:1.00\r\nEncoded date                             : UTC 1904-01-01 00:00:00\r\nTagged date                              : UTC 1904-01-01 00:00:00\r\n\r\nAudio\r\nID                                       : 2\r\nFormat                                   : AAC\r\nFormat/Info                              : Advanced Audio Codec\r\nFormat profile                           : LC\r\nCodec ID                                 : 40\r\nDuration                                 : 2h 5mn\r\nDuration_LastFrame                       : 32ms\r\nBit rate mode                            : Constant\r\nBit rate                                 : 224 Kbps\r\nChannel(s)                               : 2 channels\r\nChannel(s)_Original                      : 6 channels\r\nChannel positions                        : Front: L C R, Side: L R, LFE\r\nSampling rate                            : 48.0 KHz\r\nCompression mode                         : Lossy\r\nStream size                              : 201 MiB (8%)\r\nLanguage                                 : English\r\nEncoded date                             : UTC 1904-01-01 00:00:00\r\nTagged date                              : UTC 1904-01-01 00:00:00\r\n\r\nMenu #1\r\nID                                       : 3\r\nCodec ID                                 : text\r\nDuration                                 : 2h 5mn\r\nLanguage                                 : English\r\nEncoded date                             : UTC 1904-01-01 00:00:00\r\nTagged date                              : UTC 1904-01-01 00:00:00\r\nBit rate mode                            : CBR\r\n00:00:00.000                             : 00:00:00.000\r\n00:07:40.378                             : 00:07:40.335\r\n00:14:20.778                             : 00:14:20.735\r\n00:20:31.607                             : 00:20:31.564\r\n00:27:48.460                             : 00:27:48.417\r\n00:34:54.844                             : 00:34:54.801\r\n00:41:02.670                             : 00:41:02.627\r\n00:46:28.829                             : 00:46:28.786\r\n00:53:05.559                             : 00:53:05.516\r\n01:01:00.283                             : 01:01:00.240\r\n01:08:22.600                             : 01:08:22.557\r\n01:14:43.856                             : 01:14:43.813\r\n01:21:31.304                             : 01:21:31.261\r\n01:31:01.749                             : 01:31:01.706\r\n01:38:42.793                             : 01:38:42.750\r\n01:45:41.128                             : 01:45:41.085\r\n01:52:49.014                             : 01:52:48.971\r\n01:58:00.158                             : 01:58:00.115\r\n\r\nMenu #2\r\n00:00:00.043                             : 00:00:00.000\r\n00:07:40.378                             : 00:07:40.335\r\n00:14:20.778                             : 00:14:20.735\r\n00:20:31.607                             : 00:20:31.564\r\n00:27:48.460                             : 00:27:48.417\r\n00:34:54.844                             : 00:34:54.801\r\n00:41:02.670                             : 00:41:02.627\r\n00:46:28.829                             : 00:46:28.786\r\n00:53:05.559                             : 00:53:05.516\r\n01:01:00.283                             : 01:01:00.240\r\n01:08:22.600                             : 01:08:22.557\r\n01:14:43.856                             : 01:14:43.813\r\n01:21:31.304                             : 01:21:31.261\r\n01:31:01.749                             : 01:31:01.706\r\n01:38:42.793                             : 01:38:42.750\r\n01:45:41.128                             : 01:45:41.085\r\n01:52:49.014                             : 01:52:48.971\r\n01:58:00.158                             : 01:58:00.115","torrent":{"xt":"urn:btih:7f6a659a1267fdd7b3b6f5846948fcd329edbdff","amp;dn":"Terminator.Genisys.2015.1080p.BluRay.H264.AAC-RARBG","amp;tr":["udp%3A%2F%2Ftracker.leechers-paradise.org%3A6969","udp%3A%2F%2Fzer0day.ch%3A1337","udp%3A%2F%2Fopen.demonii.com%3A1337","udp%3A%2F%2Ftracker.coppersurfer.tk%3A6969","udp%3A%2F%2Fexodus.desync.com%3A6969"],"infoHash":"7f6a659a1267fdd7b3b6f5846948fcd329edbdff","infoHashBuffer":{"type":"Buffer","data":[127,106,101,154,18,103,253,215,179,182,245,132,105,72,252,211,41,237,189,255]},"announce":[],"urlList":[]}}